<svg aria-roledescription="flowchart-v2" role="graphics-document document" viewBox="-8 -8 254 591" style="max-width: 254px;" xmlns:xlink="http://www.w3.org/1999/xlink" xmlns="http://www.w3.org/2000/svg" width="100%" id="mermaid-1775309433395"><style>#mermaid-1775309433395{font-family:Inter,Raleway,sans-serif;font-size:14px;fill:#00F2FF;}#mermaid-1775309433395 .error-icon{fill:#1e293b;}#mermaid-1775309433395 .error-text{fill:#e1d6c4;stroke:#e1d6c4;}#mermaid-1775309433395 .edge-thickness-normal{stroke-width:2px;}#mermaid-1775309433395 .edge-thickness-thick{stroke-width:3.5px;}#mermaid-1775309433395 .edge-pattern-solid{stroke-dasharray:0;}#mermaid-1775309433395 .edge-pattern-dashed{stroke-dasharray:3;}#mermaid-1775309433395 .edge-pattern-dotted{stroke-dasharray:2;}#mermaid-1775309433395 .marker{fill:#FFD600;stroke:#FFD600;}#mermaid-1775309433395 .marker.cross{stroke:#FFD600;}#mermaid-1775309433395 svg{font-family:Inter,Raleway,sans-serif;font-size:14px;}#mermaid-1775309433395 .label{font-family:Inter,Raleway,sans-serif;color:#e0e0e0;}#mermaid-1775309433395 .cluster-label text{fill:#00F2FF;}#mermaid-1775309433395 .cluster-label span,#mermaid-1775309433395 p{color:#00F2FF;}#mermaid-1775309433395 .label text,#mermaid-1775309433395 span,#mermaid-1775309433395 p{fill:#e0e0e0;color:#e0e0e0;}#mermaid-1775309433395 .node rect,#mermaid-1775309433395 .node circle,#mermaid-1775309433395 .node ellipse,#mermaid-1775309433395 .node polygon,#mermaid-1775309433395 .node path{fill:#0f1724;stroke:#00F2FF;stroke-width:1px;}#mermaid-1775309433395 .flowchart-label text{text-anchor:middle;}#mermaid-1775309433395 .node .label{text-align:center;}#mermaid-1775309433395 .node.clickable{cursor:pointer;}#mermaid-1775309433395 .arrowheadPath{fill:#0b0b0b;}#mermaid-1775309433395 .edgePath .path{stroke:#FFD600;stroke-width:2.0px;}#mermaid-1775309433395 .flowchart-link{stroke:#FFD600;fill:none;}#mermaid-1775309433395 .edgeLabel{background-color:#0f1724;text-align:center;}#mermaid-1775309433395 .edgeLabel rect{opacity:0.5;background-color:#0f1724;fill:#0f1724;}#mermaid-1775309433395 .labelBkg{background-color:rgba(15, 23, 36, 0.5);}#mermaid-1775309433395 .cluster rect{fill:#1a2332;stroke:#333;stroke-width:1px;}#mermaid-1775309433395 .cluster text{fill:#00F2FF;}#mermaid-1775309433395 .cluster span,#mermaid-1775309433395 p{color:#00F2FF;}#mermaid-1775309433395 div.mermaidTooltip{position:absolute;text-align:center;max-width:200px;padding:2px;font-family:Inter,Raleway,sans-serif;font-size:12px;background:#1e293b;border:1px solid hsl(217.2413793103, 0%, 7.4509803922%);border-radius:2px;pointer-events:none;z-index:100;}#mermaid-1775309433395 .flowchartTitleText{text-anchor:middle;font-size:18px;fill:#00F2FF;}#mermaid-1775309433395 :root{--mermaid-font-family:"trebuchet ms",verdana,arial,sans-serif;}</style><g><marker orient="auto" markerHeight="12" markerWidth="12" markerUnits="userSpaceOnUse" refY="5" refX="6" viewBox="0 0 10 10" class="marker flowchart" id="mermaid-1775309433395_flowchart-pointEnd"><path style="stroke-width: 1; stroke-dasharray: 1, 0;" class="arrowMarkerPath" d="M 0 0 L 10 5 L 0 10 z"></path></marker><marker orient="auto" markerHeight="12" markerWidth="12" markerUnits="userSpaceOnUse" refY="5" refX="4.5" viewBox="0 0 10 10" class="marker flowchart" id="mermaid-1775309433395_flowchart-pointStart"><path style="stroke-width: 1; stroke-dasharray: 1, 0;" class="arrowMarkerPath" d="M 0 5 L 10 10 L 10 0 z"></path></marker><marker orient="auto" markerHeight="11" markerWidth="11" markerUnits="userSpaceOnUse" refY="5" refX="11" viewBox="0 0 10 10" class="marker flowchart" id="mermaid-1775309433395_flowchart-circleEnd"><circle style="stroke-width: 1; stroke-dasharray: 1, 0;" class="arrowMarkerPath" r="5" cy="5" cx="5"></circle></marker><marker orient="auto" markerHeight="11" markerWidth="11" markerUnits="userSpaceOnUse" refY="5" refX="-1" viewBox="0 0 10 10" class="marker flowchart" id="mermaid-1775309433395_flowchart-circleStart"><circle style="stroke-width: 1; stroke-dasharray: 1, 0;" class="arrowMarkerPath" r="5" cy="5" cx="5"></circle></marker><marker orient="auto" markerHeight="11" markerWidth="11" markerUnits="userSpaceOnUse" refY="5.2" refX="12" viewBox="0 0 11 11" class="marker cross flowchart" id="mermaid-1775309433395_flowchart-crossEnd"><path style="stroke-width: 2; stroke-dasharray: 1, 0;" class="arrowMarkerPath" d="M 1,1 l 9,9 M 10,1 l -9,9"></path></marker><marker orient="auto" markerHeight="11" markerWidth="11" markerUnits="userSpaceOnUse" refY="5.2" refX="-1" viewBox="0 0 11 11" class="marker cross flowchart" id="mermaid-1775309433395_flowchart-crossStart"><path style="stroke-width: 2; stroke-dasharray: 1, 0;" class="arrowMarkerPath" d="M 1,1 l 9,9 M 10,1 l -9,9"></path></marker><g class="root"><g class="clusters"></g><g class="edgePaths"><path marker-end="url(#mermaid-1775309433395_flowchart-pointEnd)" style="fill:none;" class="edge-thickness-normal edge-pattern-solid flowchart-link LS-A LE-B" id="L-A-B-0" d="M106.63,31L101.691,35.167C96.753,39.333,86.877,47.667,82.004,55.2C77.132,62.734,77.264,69.467,77.33,72.834L77.396,76.201"></path><path marker-end="url(#mermaid-1775309433395_flowchart-pointEnd)" style="fill:none;" class="edge-thickness-normal edge-pattern-solid flowchart-link LS-B LE-Se" id="L-B-Se-0" d="M56.045,182.045L51.037,191.037C46.03,200.03,36.015,218.015,31.007,231.624C26,245.233,26,254.467,26,259.083L26,263.7"></path><path marker-end="url(#mermaid-1775309433395_flowchart-pointEnd)" style="fill:none;" class="edge-thickness-normal edge-pattern-solid flowchart-link LS-B LE-Sg" id="L-B-Sg-0" d="M98.955,182.045L103.796,191.037C108.637,200.03,118.318,218.015,123.159,231.624C128,245.233,128,254.467,128,259.083L128,263.7"></path><path marker-end="url(#mermaid-1775309433395_flowchart-pointEnd)" style="fill:none;" class="edge-thickness-normal edge-pattern-solid flowchart-link LS-Se LE-C" id="L-Se-C-0" d="M26,300L26,305.5C26,311,26,322,31.143,332.391C36.287,342.783,46.574,352.565,51.717,357.456L56.86,362.348"></path><path marker-end="url(#mermaid-1775309433395_flowchart-pointEnd)" style="fill:none;" class="edge-thickness-normal edge-pattern-solid flowchart-link LS-Sg LE-C" id="L-Sg-C-0" d="M128,300L128,305.5C128,311,128,322,122.857,332.391C117.713,342.783,107.426,352.565,102.283,357.456L97.14,362.348"></path><path marker-end="url(#mermaid-1775309433395_flowchart-pointEnd)" style="fill:none;" class="edge-thickness-normal edge-pattern-solid flowchart-link LS-C LE-D" id="L-C-D-0" d="M77,397L77,401.167C77,405.333,77,413.667,77,421.117C77,428.567,77,435.133,77,438.417L77,441.7"></path><path marker-end="url(#mermaid-1775309433395_flowchart-pointEnd)" style="fill:none;" class="edge-thickness-normal edge-pattern-solid flowchart-link LS-D LE-E" id="L-D-E-0" d="M77,478L77,483.5C77,489,77,500,81.822,510.372C86.644,520.744,96.288,530.489,101.11,535.361L105.932,540.233"></path><path marker-end="url(#mermaid-1775309433395_flowchart-pointEnd)" style="fill:none;" class="edge-thickness-normal edge-pattern-solid flowchart-link LS-E LE-A" id="L-E-A-0" d="M151.046,544L160.289,538.5C169.531,533,188.015,522,197.258,508.417C206.5,494.833,206.5,478.667,206.5,463.833C206.5,449,206.5,435.5,206.5,422C206.5,408.5,206.5,395,206.5,380.167C206.5,365.333,206.5,349.167,206.5,333C206.5,316.833,206.5,300.667,206.5,284.5C206.5,268.333,206.5,252.167,206.5,228.417C206.5,204.667,206.5,173.333,206.5,143.333C206.5,113.333,206.5,84.667,198.906,66.56C191.313,48.453,176.125,40.906,168.531,37.132L160.938,33.359"></path></g><g class="edgeLabels"><g class="edgeLabel"><g transform="translate(0, 0)" class="label"><foreignObject height="0" width="0"><div style="display: inline-block; white-space: nowrap;" xmlns="http://www.w3.org/1999/xhtml"><span class="edgeLabel"></span></div></foreignObject></g></g><g transform="translate(26, 236)" class="edgeLabel"><g transform="translate(-24.5, -8)" class="label"><foreignObject height="16" width="49"><div style="display: inline-block; white-space: nowrap;" xmlns="http://www.w3.org/1999/xhtml"><span class="edgeLabel">Entropy</span></div></foreignObject></g></g><g transform="translate(128, 236)" class="edgeLabel"><g transform="translate(-33.5, -8)" class="label"><foreignObject height="16" width="67"><div style="display: inline-block; white-space: nowrap;" xmlns="http://www.w3.org/1999/xhtml"><span class="edgeLabel">Grounding</span></div></foreignObject></g></g><g class="edgeLabel"><g transform="translate(0, 0)" class="label"><foreignObject height="0" width="0"><div style="display: inline-block; white-space: nowrap;" xmlns="http://www.w3.org/1999/xhtml"><span class="edgeLabel"></span></div></foreignObject></g></g><g class="edgeLabel"><g transform="translate(0, 0)" class="label"><foreignObject height="0" width="0"><div style="display: inline-block; white-space: nowrap;" xmlns="http://www.w3.org/1999/xhtml"><span class="edgeLabel"></span></div></foreignObject></g></g><g class="edgeLabel"><g transform="translate(0, 0)" class="label"><foreignObject height="0" width="0"><div style="display: inline-block; white-space: nowrap;" xmlns="http://www.w3.org/1999/xhtml"><span class="edgeLabel"></span></div></foreignObject></g></g><g transform="translate(77, 511)" class="edgeLabel"><g transform="translate(-17.5, -8)" class="label"><foreignObject height="16" width="35"><div style="display: inline-block; white-space: nowrap;" xmlns="http://www.w3.org/1999/xhtml"><span class="edgeLabel">Slash</span></div></foreignObject></g></g><g transform="translate(206.5, 333)" class="edgeLabel"><g transform="translate(-31.5, -8)" class="label"><foreignObject height="16" width="63"><div style="display: inline-block; white-space: nowrap;" xmlns="http://www.w3.org/1999/xhtml"><span class="edgeLabel">Feedback</span></div></foreignObject></g></g></g><g class="nodes"><g transform="translate(125, 15.5)" id="flowchart-A-0" class="node default default flowchart-label"><rect height="31" width="85" y="-15.5" x="-42.5" ry="0" rx="0" style="" class="basic label-container"></rect><g transform="translate(-35, -8)" style="" class="label"><rect></rect><foreignObject height="16" width="70"><div style="display: inline-block; white-space: nowrap;" xmlns="http://www.w3.org/1999/xhtml"><span class="nodeLabel">SDK Ingest</span></div></foreignObject></g></g><g transform="translate(77, 142)" id="flowchart-B-1" class="node default default flowchart-label"><polygon style="" transform="translate(-61,61)" class="label-container" points="61,0 122,-61 61,-122 0,-61"></polygon><g transform="translate(-38, -8)" style="" class="label"><rect></rect><foreignObject height="16" width="76"><div style="display: inline-block; white-space: nowrap;" xmlns="http://www.w3.org/1999/xhtml"><span class="nodeLabel">XAO Engine</span></div></foreignObject></g></g><g transform="translate(26, 284.5)" id="flowchart-Se-3" class="node default default flowchart-label"><rect height="31" width="52" y="-15.5" x="-26" ry="0" rx="0" style="" class="basic label-container"></rect><g transform="translate(-18.5, -8)" style="" class="label"><rect></rect><foreignObject height="16" width="37"><div style="display: inline-block; white-space: nowrap;" xmlns="http://www.w3.org/1999/xhtml"><span class="nodeLabel">Score</span></div></foreignObject></g></g><g transform="translate(128, 284.5)" id="flowchart-Sg-5" class="node default default flowchart-label"><rect height="31" width="52" y="-15.5" x="-26" ry="0" rx="0" style="" class="basic label-container"></rect><g transform="translate(-18.5, -8)" style="" class="label"><rect></rect><foreignObject height="16" width="37"><div style="display: inline-block; white-space: nowrap;" xmlns="http://www.w3.org/1999/xhtml"><span class="nodeLabel">Score</span></div></foreignObject></g></g><g transform="translate(77, 381.5)" id="flowchart-C-7" class="node default default flowchart-label"><rect height="31" width="87" y="-15.5" x="-43.5" ry="0" rx="0" style="" class="basic label-container"></rect><g transform="translate(-36, -8)" style="" class="label"><rect></rect><foreignObject height="16" width="72"><div style="display: inline-block; white-space: nowrap;" xmlns="http://www.w3.org/1999/xhtml"><span class="nodeLabel">AIS Commit</span></div></foreignObject></g></g><g transform="translate(77, 462.5)" id="flowchart-D-11" class="node default default flowchart-label"><rect height="31" width="96" y="-15.5" x="-48" ry="0" rx="0" style="" class="basic label-container"></rect><g transform="translate(-40.5, -8)" style="" class="label"><rect></rect><foreignObject height="16" width="81"><div style="display: inline-block; white-space: nowrap;" xmlns="http://www.w3.org/1999/xhtml"><span class="nodeLabel">Ethereum L2</span></div></foreignObject></g></g><g transform="translate(125, 559.5)" id="flowchart-E-13" class="node default default flowchart-label"><rect height="31" width="82" y="-15.5" x="-41" ry="0" rx="0" style="" class="basic label-container"></rect><g transform="translate(-33.5, -8)" style="" class="label"><rect></rect><foreignObject height="16" width="67"><div style="display: inline-block; white-space: nowrap;" xmlns="http://www.w3.org/1999/xhtml"><span class="nodeLabel">Bond Burn</span></div></foreignObject></g></g></g></g></g></svg>